<?xml version="1.0" ?><svg id="solid" viewBox="0 0 512 512" xmlns="http://www.w3.org/2000/svg"><title/><path d="M496,352a40.045,40.045,0,0,1-40,40H56a40.045,40.045,0,0,1-40-40,8,8,0,0,1,8-8H379.48l17.943,17.942A48.038,48.038,0,0,0,476.639,344H488A8,8,0,0,1,496,352ZM383.652,144H400v84.755l48,48V120a24.028,24.028,0,0,0-24-24H370.74a127.955,127.955,0,0,1,12.538,43.555Q383.5,141.777,383.652,144ZM72,328H363.48l-32-32H112V144h16.355A128.061,128.061,0,0,1,141.2,96H88a24.028,24.028,0,0,0-24,24V320A8,8,0,0,0,72,328Zm104.8-96.166A112,112,0,1,1,350.33,213.027l13.149,13.149a8,8,0,0,1,11.315,0l79.2,79.2a32,32,0,0,1-45.255,45.256l-79.2-79.2a8,8,0,0,1,0-11.314l-13.15-13.151A112.2,112.2,0,0,1,176.8,231.834Zm33.941-33.942a64,64,0,1,0,0-90.509A63.582,63.582,0,0,0,210.745,197.892Z" style="fill:#3b3b3b"/></svg>